<svg id="Layer_1" data-name="Layer 1" xmlns="http://www.w3.org/2000/svg" viewBox="0 0 534.94 669.85"><defs><style>.cls-1{fill:#a40147;}.cls-2{fill:#a40247;}.cls-3{fill:#a40347;}.cls-4{fill:#a30447;}.cls-5{fill:#a30648;}.cls-6{fill:#a20b4b;}.cls-7{fill:#890f41;}.cls-8{fill:#a61d54;}.cls-9{fill:#9e174d;}.cls-10{fill:#a0184e;}.cls-11{fill:#a92058;}.cls-12{fill:#a01249;}.cls-13{fill:#9d1d51;}.cls-14{fill:#9e2455;}.cls-15{fill:#7f1643;}.cls-16{fill:#bb316a;}.cls-17{fill:#8e4b6c;}.cls-18{fill:#6d1d42;}.cls-19{fill:#f6e1ef;}.cls-20{fill:#e3a00a;}.cls-21{fill:#a60348;}.cls-22{fill:#a40046;}</style></defs><path class="cls-1" d="M478.11,101.58c-9.36-9.36-18.27-19.22-28.18-27.95-14.53-12.79-30.87-23.1-48.13-31.91-.64-.33-1.26-.7-2.81-1.57h160.1v222c-4-.23-8-.25-12-.74-10-1.22-20.23-1.76-29.92-4.3-6.48-1.7-12.73-5.66-18.14-9.83-11-8.5-21.37-17.85-32-26.8-5.08-4.26-10.83-5.13-16.76-2.24A73.68,73.68,0,0,0,439.38,225c-28,20.47-59.12,33.72-93,40.62-4,.82-8.1,1.1-12.15,1.63-.78-.06-1.57-.14-2.35-.18-12.64-.68-12.64-.67-12.63-13.19q0-54.76,0-109.54L327,131.15c7.23-4.36,8-9.07,2.12-13.28-1.78-4.27-4.27-8-9.32-8.26-4.87-.27-6.41,3.81-8.18,7.35a3.41,3.41,0,0,1-.45.47,17.06,17.06,0,0,1-2.45-2.1c-2.55-3.15-6.08-3-9-1.68-2.77,1.22-4.25,3.73-4.31,7.52-.12,8.34,4.57,12.46,11.22,15.73,3.17,1.56,6,3.8,9,5.73,0,2.17,0,4.34,0,6.51q0,54.59,0,109.17v5.63l-5.37.51c-4.18-.42-9.17-2.42-12.3-.81s-4.32,6.84-6.4,10.47c-.37.64-.89,1.19-2.15,2.84-.51-2.73-1-4.41-1.11-6.12q-4.46-57.54-8.86-115.09c-.53-6.92-1-13.85-1.77-20.75-.4-3.81-1.86-7.29-6.35-7.54s-6.4,3-7.06,6.85c-3.51,20.57-6.6,41.22-10.44,61.74C250,215.76,246,235.45,241.36,255c-4.25,17.87-14.78,23.85-32.7,19.18-9.2-2.39-17.31-7.22-22.89-15.12-3.46-4.9-7.25-7.64-13.4-6.2-7.48,1.75-15.1,3-22.46,5.17-7.07,2.09-13.87,5.11-22,8.18.87-7.29,1.3-13.64,2.43-19.86C142.16,181,174.92,129.26,230.81,93a199.42,199.42,0,0,1,97-32.22l32.3,0A192.75,192.75,0,0,1,440,83.39c11.78,6.28,22.72,14.13,34,21.27l1.18,1.62c-.2,4.37-.06,8.36,6.12,8,.94-.06,1.86,1.63,3,2.11a16,16,0,0,0,3.64.67.65.65,0,0,1,.36.33l2.28,2.27,3.69,3,1.23-1.18Z" transform="translate(-32.53 -40.08)"/><path class="cls-2" d="M319.37,283.45c19.34.8,38.15-2.87,56.53-8.11a246.94,246.94,0,0,0,37.54-14.41c10.79-5.1,20.9-11.72,31-18.15,11.11-7.06,14.45-6.74,23.42,3.19,11.47,12.71,23.9,24.48,40.85,29.14,9.36,2.57,19.28,3.24,29,4.29,7.2.78,14.49.8,22.2,1.17.08,1.67.22,3.19.21,4.7q-.45,83.88-.93,167.77c-.09,18.85.18,37.71-.14,56.56-.08,4.92-1.74,9.81-2.46,13.61-2.64-.77-4.51-2-6.14-1.68-4.67.76-7.15-1.16-8.66-5.43v6.7c-4.84-2.6-6.37-7.29-6.57-11.71-.39-9,1.32-18-.77-27.18-1.4-6.15,0-13.22,1.3-19.64,2.15-10.71,4.86-21.3,4-32.34-.27-3.44-1-6.85-1.35-10.28-.89-8-1.7-16-2-24.09,5.86,7.43,6,16.59,7,25.19s.22,17.29.22,25.95a28.79,28.79,0,0,1,3.62-.33c4.91.14,8.4-4.76,7.3-9.51a133.29,133.29,0,0,1-2.44-15.69c-.92-8.3-2.42-16.65-2.11-24.92.35-9.55-4.64-17.39-6.32-26.2-1.36-7.12-5.57-11.23-12.3-13.56-6.9-2.38-9.88-8.55-8.8-15.83,1-6.8,2.33-13.87-4.43-18.92a7.84,7.84,0,0,0-2.25-1.39c-6.79-2-16.76,2.48-18.26,9.19-.8,3.55.87,7.91,2.2,11.62,1.45,4.09,4,7.78,5.6,11.84.45,1.17-.81,3.05-1.42,4.56-.13.32-.79.53-1.24.6-9.27,1.5-10.2,9.21-13.13,17.25-.23-.76-.48-1.52-.7-2.28-.93-3.24-2.14-5.92-6.22-6.53-.85-.13-1.26-3.87-1.66-6s-.22-4.09-.73-6c-.91-3.48-2.3-6.84-3.19-10.32-1.37-5.36-5.47-8.8-10.86-8.74-4.48,0-11.06,4.8-11.9,8.84-.24,1.15.27,2.45.38,3.69.64,6.65,1.62,13.29,1.7,19.95,0,2.31-2.46,4.56-3.25,7a17.31,17.31,0,0,0-.91,7c1.79,15.37-5,28.64-10.12,42.31a19,19,0,0,1-1.85,3.28c-1.86,2.92-3.75,5.82-6.14,9.52l9.45,2.3c1.48-8.13,4.09-14.85,10.74-20.43a65.57,65.57,0,0,1,.8,6.67c.22,8.41,0,16.83.52,25.21.4,6.92,1.5,13.79,2.32,21a210.93,210.93,0,0,1-89.38,32.27c1.62-2.54,2.55-4.3,3.76-5.84,2.35-3,1.44-4.33-1.92-5.84-6.29-2.82-12.29-6.29-18.38-9.54-.3-.16-.34-.8-.39-.93,3.55-1.7,7-3.3,10.36-5,.73-.37,1.68-1.17,1.74-1.83.48-5.51,1.67-11.15,1-16.53-2.06-15.66-4.74-31.24-7.56-46.78-.52-2.86-2.86-5.37-4.19-8.13a6,6,0,0,1-.77-3.58c1-4.37,2.32-8.67,3.55-13.11,1.17,4.23,2.42,8.77,3.78,13.72l2.79-.37c-.2-2.75-.49-5.2-.52-7.65-.09-6.64-1.89-8.49-8.56-8.88-3.47-.2-7.08-1.4-10.37-.79-7.12,1.32-7.94,2.85-8.4,10.2a18.73,18.73,0,0,1-1.23,4.15l-2.16,1.37-10.66-13a3.46,3.46,0,0,0-.23-.82,84.3,84.3,0,0,1-.93-8.92Q319.27,330.73,319.37,283.45Z" transform="translate(-32.53 -40.08)"/><path class="cls-3" d="M315.71,387.83c-3.76,1.13-1.25,3.42-.89,5.22s1,3.4,1.91,6.14c1.47.42,4.15,1.78,6.82,1.78,3.84,0,4.4,2.17,5.49,5A99,99,0,0,0,335.78,420c3.28,5.74,3.12,12,2.34,18-.27,2.06-4,3.77-6.3,5.4a21.61,21.61,0,0,1-4.08,1.88l6,4.76c6.73,0,9.42,2.51,8.24,8.91-.08.47,0,1.18-.31,1.36-5.39,3.34-4,10.61-8.67,14.56-3.14,2.67-1.39,12.37,2.54,14.18,7.71,3.57,9.18,10.63,11.63,18.53-22.78.45-44.22-2.48-65.81-10,6-2.69,3.57-6.65,3.37-10.69-.43-8.94.3-17.92.37-26.89a17.13,17.13,0,0,0-1.21-5.91c-1.39-3.81-.66-7.1,2.32-10.93,1.79,2.35,3.36,4.49,5,6.56,1.37,1.71,2.62,3.64,4.36,4.87a4.2,4.2,0,0,0,4-.16c2.7-2.38,5.58-4.88,7.35-7.94,3-5.15,7.44-7.31,13.66-8.45l-3-.76c.74-2.35,1.46-4.67,2.35-7.52l-5.38,2.14,3.49-5.89c-1.92,1.19-2.94,1.49-3.4,2.16-2.11,3-8,2.3-7.69,7.69a1.36,1.36,0,0,1-.24.9c-2.46,2.7-4.95,5.37-8,8.62-1.21-2.77-2.15-4.25-2.5-5.85-1.14-5.26-4-8.9-8.66-11.71-3.72-2.26-3.16-5.24.34-7.73,1.65-1.16,2.7-3.22,3.9-5,.95-1.39,1.71-2.9,2.41-4.1,1.85,2.33,3.57,4.49,5.28,6.66l.92-.8c-.64-4.65-.54-9.57-2.18-13.83-1.15-3-4.31-5.66-7.19-7.49-5.16-3.25-14.77-1-18.53,3.74-1.45,1.81-2.65,5.4-3.17,9.65l3.69-1c.7,2.93,1.38,5.83,2.07,8.73l-1.29.66-14.81-12.7c4.38-7.29,8.56-13.51,16.65-15.59a5.36,5.36,0,0,0,3.3-2.47c.52-1.22.17-4.11-.21-4.18-2-.39-4.62-.9-6.05.08-6.44,4.4-12.53,9.3-18.77,14-3.34,2.51-3.82,5.6-2,9.19,1.58,3.09,2.75,6.51,4.88,9.15,3.39,4.22,3.25,9.1,2.68,13.63-.83,6.53-3,12.9-4.5,19.36-.33,1.36-.82,2.89-.49,4.16,3.12,12.19.35,25,4.49,37.3-32.7-13.94-59.7-34.89-81.74-62.24-36-44.69-50-97.2-49.79-139.6,10.65-4.62,21-9.23,31.39-13.51,3.17-1.3,6.74-1.6,10.08-2.5s5.39.28,7.72,2.79c9.65,10.45,21.06,18.57,35.53,19.93,12.94,1.22,26.24.3,35.3-10.72a47.55,47.55,0,0,0,8.87-18.5c3.81-15.8,6.41-31.89,9.58-47.85a13.16,13.16,0,0,1,1.69-3.26c.6,1.09,1.65,2.16,1.73,3.28,1.5,22.11,2.78,44.22,4.34,66.32.65,9.26,1.55,18.53,3,27.69.23,1.42,4,2.78,6.29,3.25,3,.6,6,.15,7.44-3.41,2.56-6.29,5.25-12.53,7.91-18.78.56-1.31,1.18-2.59,1.83-3.86,4.62-8.94,6.8-9.59,16.3-4.88-.06,1.57-.17,3.15-.18,4.73Q316,338,315.71,387.83Z" transform="translate(-32.53 -40.08)"/><path class="cls-4" d="M32.53,561.1c18.75-.21,37.36-3.29,55.75,1.72,9.11,2.49,17.14,7.14,19.54,16.84,3.76,15.23,1.18,30.93-16.43,39.77-1.24.62-2.48,1.27-4.31,2.22,11.7,15.23,17.76,35.36,40,41v6.13c-22.12,5.5-35,1.46-45.52-14.68-5.07-7.81-10.11-15.7-14.44-23.93-2.46-4.66-5.45-6-10.7-4.6v44H32.53ZM56.1,572.42a7.56,7.56,0,0,0-1,2.45q-.11,18.2,0,36.37c0,.94.74,1.87,1.14,2.8,5.44-.62,11-.76,16.29-2,7.36-1.71,10.71-7.31,11.49-14.49.87-7.92,1.39-15.84-5.4-21.91a6.15,6.15,0,0,0-1.14-.83A29.59,29.59,0,0,0,56.1,572.42Z" transform="translate(-32.53 -40.08)"/><path class="cls-2" d="M32.68,40.08H158.36c-52.87,26-94.17,63.07-125.68,112.21Z" transform="translate(-32.53 -40.08)"/><path class="cls-5" d="M250.63,633.83c-14,0-27.77-.09-41.51.14-1.3,0-3.18,1.8-3.76,3.2-4,9.61-7.83,19.31-11.53,29.05-1,2.54-2.12,3.87-5.08,3.64-3.59-.29-7.22-.07-11.72-.07,2.66-6.34,5-12.08,7.48-17.77,12.39-28.71,24.86-57.39,37.15-86.15,1.21-2.81,2.73-4.15,5.76-4.51,6.26-.76,12.49-1.88,19.36-2.94l43.34,111.36c-8.4,0-16.53.11-24.64-.16-.91,0-2.05-2.1-2.56-3.43C258.71,655.31,254.62,644.39,250.63,633.83Zm-39.47-11.18a7.56,7.56,0,0,0,2.43,1q15.78.09,31.55,0c.33,0,.65-.59,1-.9-1.57-4.6-3.05-9.24-4.75-13.79-3.89-10.41-7.89-20.77-11.84-31.15h-1.13Q219.78,600.21,211.16,622.65Z" transform="translate(-32.53 -40.08)"/><path class="cls-5" d="M567.47,669.79c-8.12,0-15.56.21-23-.18-1.53-.08-3.65-2.12-4.29-3.74-4.26-10.69-8.19-21.52-12.12-32-14.12,0-28-.07-41.9.14-1.16,0-2.82,1.75-3.36,3-3.94,9.47-7.78,19-11.35,28.61-1.17,3.16-2.67,4.58-6.16,4.21-3.26-.34-6.58-.07-10.38-.07a22.73,22.73,0,0,1,.86-3.38q21.75-50.48,43.5-100.95c1.05-2.43,2.3-3.71,5.1-4,5.33-.56,10.65-1.45,15.91-2.51,3.14-.63,4.37.49,5.48,3.36q18.23,47.29,36.7,94.51C564.09,660.92,565.65,665,567.47,669.79Zm-78.85-47.15a7.27,7.27,0,0,0,2.44,1c10.54.07,21.08,0,31.62,0,.3,0,.6-.61.89-.93-3.44-9.43-6.85-18.86-10.33-28.28-2.1-5.68-4.3-11.33-6.88-18.12C500.14,592.53,494.38,607.59,488.62,622.64Z" transform="translate(-32.53 -40.08)"/><path class="cls-5" d="M363.63,633.72c-13.89,0-27.18,0-40.46,0-2.79,0-4.11,1.27-5.08,3.83-3.61,9.61-7.52,19.1-11.15,28.71-1,2.57-2.27,3.79-5.13,3.61-3.59-.22-7.21-.05-11.6-.05,1.07-2.77,1.81-4.92,2.71-7q21-48.74,42.24-97.39a7.31,7.31,0,0,1,4.53-3.64c6.48-1.38,13.07-2.23,20.13-3.36,14.37,37,28.71,73.8,43.34,111.41-8.41,0-16.25.13-24.08-.16-1.08,0-2.51-2-3.05-3.42C371.77,655.36,367.69,644.43,363.63,633.72Zm-4.52-11c-.43-1.65-.71-3.36-1.3-5Q351,599.62,344,581.5c-.52-1.36-1.13-2.68-2-4.83C336,591.81,330.51,605.91,325.05,620a7.86,7.86,0,0,0,0,2.82,13.9,13.9,0,0,0,3.08.77q13.75.09,27.5,0A14.77,14.77,0,0,0,359.11,622.72Z" transform="translate(-32.53 -40.08)"/><path class="cls-5" d="M80.11,516.74c-2.21,1.44-3.94,2.73-5.83,3.72a7.16,7.16,0,0,1-3.15.51c-5.06.07-10.18-.37-15.17.25-2.81.34-5.41,2.39-8.09,3.66l-5-5-.29,4.4-3.19-2.46c-2.09,3.63-3.56,4.47-3.59-1.08l-2.94,2.14V463.36C46.91,483.48,62.22,501.69,80.11,516.74Z" transform="translate(-32.53 -40.08)"/><path class="cls-6" d="M496,465.1a15.26,15.26,0,0,1-.76,2.25c-4.13,7.77-3.76,10.9,2.61,16.94a68.25,68.25,0,0,0,8.92,7c11.82,7.88,11,12.56,7,24.77l-2.44-4.64-.73.31c.31,2.4.62,4.81.82,6.42l-5.62.88-4-4.26-6.42,2.2c1.72-9.71-5.12-15.81-8.48-23.14-1.48-3.22-2.48-7-7-8.19-2.45-.63-2.15-7.55,0-10.91.91-1.42,2.14-2.92,2.31-4.49.55-5.21,4-8.54,7.21-12.05l.94-.94,0,0c2.15.91-1,5.93,3.72,4.83h0Z" transform="translate(-32.53 -40.08)"/><path class="cls-5" d="M467.27,487.26c2.77,11-.47,21.25-5.23,31.37h-5.76c-.14-.55-.45-1.86-1-4.07-3.24,4.16-9.07,4.32-10.35,10.28-.6,2.78-8.51,3.93-11.56,2.41-2.63-1.3-5.4-2.33-7.43-3.2Z" transform="translate(-32.53 -40.08)"/><path class="cls-7" d="M439.27,669.39H417.13V561.74h23.43c.09,1.66.24,3,.24,4.39q0,49.38,0,98.76c0,1.51-1,3-1.58,4.54l.41-3.46-3.92-1.13c4.06-.21,3.4-3,3.4-5.34q0-32.81,0-65.59c0-9-.11-18.06.05-27.09.06-3.12-1-4.22-4.1-4.07-4.26.2-8.55.2-12.82,0-3.08-.14-4.12.93-4.11,4.06q.13,48.48,0,97c0,3.7,1.72,5.54,5.46,5.54C428.82,669.31,434.05,669.36,439.27,669.39Z" transform="translate(-32.53 -40.08)"/><path class="cls-8" d="M247.07,709.1h-4.25V695.43H223V709l-4.5.25V678.51c4.62-1.86,4.5,1.14,4.45,4.15,0,2.68,0,5.36,0,8.45h19.74c0-3.12-.05-6.36,0-9.59.07-3.55.11-3.55,4.37-3.17Z" transform="translate(-32.53 -40.08)"/><path class="cls-8" d="M416.13,678.3V709h-4.46V695.35H391.84V709h-4.47V678.26h4.5v13H411.6c0-3.38.15-6.51-.05-9.63C411.34,678.35,412.64,677.28,416.13,678.3Z" transform="translate(-32.53 -40.08)"/><path class="cls-9" d="M38.92,709.09H34.36V677.65c5.94.41,11.88.49,17.7,1.35,3.73.55,6.7,2.74,7,7.16s-2.1,7-6,8.6c-1,.41-2,.74-3.16,1.15,1.43,4.28,7.61,6.09,5.59,11.51-6.33-2.22-7.39-12.25-16.67-11.3ZM39,693.3c4.38-.51,8.24-.51,11.77-1.58a6.28,6.28,0,0,0,3.49-4.79c0-1.56-2.06-4.11-3.65-4.5-3.67-.92-7.61-.8-11.61-1.11Z" transform="translate(-32.53 -40.08)"/><path class="cls-10" d="M319.33,708.79c-3.62,1.3-5.72.14-6.45-3-1.23-5.4-4.72-6.85-9.74-6a7.19,7.19,0,0,1-2.36,0c-4.7-.78-7.84.72-9.09,5.63-.8,3.16-2.67,5-6.59,3.43,4.79-9.72,9.48-19.5,14.42-29.15,1.48-2.89,4.42-2.49,6.05.8C310.2,689.76,314.68,699.16,319.33,708.79Zm-23.14-12.88h12.18L302.28,683C300.05,687.74,298.25,691.54,296.19,695.91Z" transform="translate(-32.53 -40.08)"/><path class="cls-11" d="M260.8,706.27h20.7c-3.08,3.37-12.5,4.12-24.55,2.59V677.94c7,0,14.05,0,21.08.08.53,0,1,1.2,1.56,1.84-.75.57-1.48,1.62-2.24,1.64-5.37.14-10.74.08-16.2.08v9.58l16.21.88,0,1.41a57.55,57.55,0,0,1-6.28,1.44,40.73,40.73,0,0,1-6.63.13c-2.43-.09-3.68.45-3.31,3.36C261.41,700.71,261,703.14,260.8,706.27Z" transform="translate(-32.53 -40.08)"/><path class="cls-10" d="M113.1,708.76c-3.34,1.24-5.5.43-6.36-2.87-1.33-5-4.37-7.28-9.64-6.17a7.54,7.54,0,0,1-2.84,0c-4.59-.85-7.48.81-8.72,5.44-.81,3-2.45,5.2-6.65,3.63L90,686.2c1-2.12,2-4.32,3.19-6.35,1.65-2.77,4.37-2.85,5.8,0C103.79,689.42,108.4,699.09,113.1,708.76Zm-10.77-12.51L96,682.86c-2.3,5-4.13,9-6.13,13.39Z" transform="translate(-32.53 -40.08)"/><path class="cls-12" d="M491.86,699.74a33.8,33.8,0,0,1-5.66,0c-6.31-.92-10.87.58-12.85,7.43-.37,1.28-3.09,1.89-4.73,2.8l-.79-1.12c4.73-9.62,9.37-19.28,14.23-28.82,1.65-3.25,4.51-3,6.27.57,4.55,9.19,9,18.44,13.82,28.4C494.31,710.32,496,702.49,491.86,699.74ZM485,682.88l-6.26,13.34h12.44Z" transform="translate(-32.53 -40.08)"/><path class="cls-12" d="M508.44,708.91q0-15.06,0-30.13v6.5c1.48-5.74,2.31-6.44,8.26-6.46,2.38,0,4.75-.05,7.12-.07,5.79.81,9,3.37,9.23,7.56.28,5.21-3,7.52-7.45,8.81-.57.17-1.11.46-2,.85,1.07,1.7,2,3.19,3,4.68l-2.24,2.07c-6.89-6.79-6.89-6.79-11.81-6.24,0,3.32-.11,6.71,0,10.09.11,2.43-1,3-3.08,2.54l-.27-2.79-.69,0Zm4.18-15.67c4.29-.45,8.16-.35,11.67-1.44,1.71-.53,3.83-3.29,3.78-5s-2.37-4.25-4.12-4.67c-3.54-.87-7.38-.54-11.33-.72Zm-4,2.63h.48V689.3h-.48Zm.59,4-.74-.15c.06.91.11,1.81.17,2.71l.57,0Z" transform="translate(-32.53 -40.08)"/><path class="cls-12" d="M131.06,678.7c2.49-1.71,3.95-.64,5.1,1.76,4.51,9.36,9.09,18.69,13.13,29.21-1.65-.73-4.48-1.18-4.75-2.26-2-7.86-7.46-8.07-14-7.85-4.2.13-6.79,1-7.94,5.18a27,27,0,0,1-2.1,4.36h-5.07l9.86-18.89c.62-1.34,1.25-2.67,1.87-4h0l2.28,3.37c-.68,1.48-1.37,2.95-2.06,4.43l-1,.94c-.07.14-.13.28-.2.41l.23-.38H127l11.38,2,.82-1.63-7.08-11.61C131.79,682.06,131.43,680.38,131.06,678.7Z" transform="translate(-32.53 -40.08)"/><path class="cls-9" d="M542.41,704.93a3.05,3.05,0,0,1-.15-.65c0-.08.13-.18.2-.27l0-12.36a5.54,5.54,0,0,1-.18-.67c0-.09.11-.2.18-.3l.54-11.81,21.38-.48c.07.78.14,1.56.2,2.34l-17.16.7c-.31,3.19-.62,6.38-1,10.14,5,0,9.24-.12,13.46.08,1.1.05,2.16,1.08,3.23,1.66-1.11.57-2.21,1.57-3.34,1.63-4.1.18-8.21,0-12.32,0a56,56,0,0,0-1.67,7.68c-.23,2.62,1,4,4.1,3.87,5.35-.26,10.73-.06,16.09-.06.88,2.11,0,2.84-2.08,2.8-7.06-.12-14.12-.19-21.18-.27Z" transform="translate(-32.53 -40.08)"/><path class="cls-10" d="M464.71,681c-5.9.27-10.17,0-14.26.75-6.2,1.09-9.71,5.86-9.74,12.12s3,10.45,9.48,11.64c4.24.78,8.68.49,14.35.74-1.32,1.24-2.25,2.85-3.18,2.86-4.83,0-9.84.37-14.46-.76-8.33-2-12-8.54-10.76-17.34,1-7.26,7.32-12.32,15.34-12.31,3.15,0,6.31-.21,9.45,0C461.87,678.73,462.75,679.77,464.71,681Z" transform="translate(-32.53 -40.08)"/><path class="cls-12" d="M174.75,692.8c1.92-4.12,3.75-8.3,5.84-12.33.55-1.06,2-2.42,2.93-2.34a5,5,0,0,1,3.43,2.39c4.67,9.25,9.13,18.61,13.66,27.94l-.85,1.32c-1.68-1.06-4.45-1.81-4.85-3.24-1.75-6.25-5.74-7.72-11.56-6.86a40.52,40.52,0,0,1-6.6-.09c.34-.75.67-1.51,1-2.26l12.66-.67-6.85-14c-2.32,5.49-4.19,9.92-6.07,14.35C172.89,698,175.72,694.17,174.75,692.8Z" transform="translate(-32.53 -40.08)"/><path class="cls-11" d="M142.52,562H163V669.23H139.84l1.77-.19h20V634.09c0-22.18-.08-44.36.08-66.54,0-3.74-1-5.08-4.82-4.84-4.73.31-9.49.08-14.25.08C142.57,562.52,142.55,562.26,142.52,562Z" transform="translate(-32.53 -40.08)"/><path class="cls-13" d="M368.82,681.57V709h-4.69V681.56c-3.56,0-6.83.14-10.07-.09-.86-.06-1.63-1.22-2.45-1.88.76-.55,1.52-1.57,2.29-1.58q12.59-.16,25.18,0c.73,0,1.44,1.14,2.16,1.75-.72.6-1.41,1.68-2.16,1.73C375.81,681.68,372.52,681.57,368.82,681.57Z" transform="translate(-32.53 -40.08)"/><path class="cls-8" d="M329.73,705.33c5,.14,10,.18,15,.5,1.34.08,2.64,1,4,1.53l-.51,1.58H325.45v-31l4.11.83c-.25,6.64-.59,13.27-.69,19.91A43.75,43.75,0,0,0,329.73,705.33Z" transform="translate(-32.53 -40.08)"/><path class="cls-14" d="M488.37,450.57l-2.75,2.94c0-3.81-1.67-8,4-9.65,1.33-.38,2.1-3.93,2.49-6.14,1.54-8.52,2.71-17.1,4.26-25.62.41-2.21,1.73-4.26,3-7.31,1.45,8.12,1.57,14.71-2.37,21.37-2,3.43-1.64,8.25-2.53,12.4-.59,2.77-1.51,5.47-2.28,8.21Z" transform="translate(-32.53 -40.08)"/><path class="cls-9" d="M70,677.26c1,1.18,2.91,2.34,2.94,3.55.25,9.25.14,18.52.14,28.12l-4.44.35V678.5Z" transform="translate(-32.53 -40.08)"/><path class="cls-9" d="M160.48,709.11H156V678.3c2.31-.44,4.48-1.22,4.46,2.48C160.45,690.05,160.48,699.32,160.48,709.11Z" transform="translate(-32.53 -40.08)"/><path class="cls-7" d="M141.61,669l-1.77.19a34,34,0,0,1-.58-4.46q0-49.57,0-99.13v-4.1l3.27.46c0,.26,0,.52.06.79-.65,1.69-1.85,3.38-1.86,5.07-.12,28.26-.09,56.52-.08,84.77,0,3.07,0,6.16.23,9.21.06.64,1.4,1.29,2.26,1.71a13.56,13.56,0,0,0,2.71.75l-.09.76-4.89.91Z" transform="translate(-32.53 -40.08)"/><path class="cls-15" d="M320.28,386.94c-.71-1.06-2.06-2.12-2.06-3.19q0-50.19.25-100.37a1.05,1.05,0,0,1,.9.07q0,47.28,0,94.57A84.3,84.3,0,0,0,320.28,386.94Z" transform="translate(-32.53 -40.08)"/><path class="cls-9" d="M363.76,506.7l-5,.34-4.5-12C361.2,496.26,364.21,499.85,363.76,506.7Z" transform="translate(-32.53 -40.08)"/><path class="cls-9" d="M177.75,697.33l-1,2.26c-1.28,2.11-2.92,4.08-3.78,6.35-1.2,3.19-3.08,4-6.56,2.79l8.34-15.93c1,1.37-1.86,5.22,2.74,4.21l-.07.33Z" transform="translate(-32.53 -40.08)"/><path class="cls-13" d="M485.53,411.22c-3.61-4.42-3.32-9.32-.54-14.54L487,411Z" transform="translate(-32.53 -40.08)"/><path class="cls-13" d="M524.26,702.72l2.24-2.07,8.23,6.83-1.45,1.65C528.24,710.25,526.88,705.47,524.26,702.72Z" transform="translate(-32.53 -40.08)"/><path class="cls-16" d="M566,706.46c-5.36,0-10.74-.2-16.09.06-3.08.15-4.33-1.25-4.1-3.87a56,56,0,0,1,1.67-7.68c-.29,3.26-.58,6.52-.9,10.16Z" transform="translate(-32.53 -40.08)"/><path class="cls-17" d="M360.13,60.78l-32.3,0Z" transform="translate(-32.53 -40.08)"/><path class="cls-9" d="M129.38,689.58l-2.28-3.37,4-7.51c.37,1.68.73,3.36,1.1,5Z" transform="translate(-32.53 -40.08)"/><path class="cls-13" d="M523.78,678.75c-2.37,0-4.74.06-7.12.07-5.95,0-6.78.72-8.26,6.46v-6.5Z" transform="translate(-32.53 -40.08)"/><path class="cls-18" d="M329.73,705.33a43.75,43.75,0,0,1-.86-6.69c.1-6.64.44-13.27.69-19.91Q329.64,692,329.73,705.33Z" transform="translate(-32.53 -40.08)"/><path class="cls-14" d="M564.35,678.39l-21.38.48a3,3,0,0,0-.31-.39Z" transform="translate(-32.53 -40.08)"/><path class="cls-14" d="M547.39,681.43l17.16-.7Z" transform="translate(-32.53 -40.08)"/><path class="cls-16" d="M542.66,678.48a3,3,0,0,1,.31.39l-.54,11.81Q542.55,684.59,542.66,678.48Z" transform="translate(-32.53 -40.08)"/><path class="cls-16" d="M542.43,691.65l0,12.36Z" transform="translate(-32.53 -40.08)"/><path class="cls-9" d="M127.12,686.2c-.62,1.34-1.25,2.67-1.87,4C125.87,688.87,126.5,687.54,127.12,686.2Z" transform="translate(-32.53 -40.08)"/><path class="cls-19" d="M496,465.1l-1.85-3Z" transform="translate(-32.53 -40.08)"/><path class="cls-13" d="M508.44,708.91v-2.55l.69,0,.27,2.79Z" transform="translate(-32.53 -40.08)"/><path class="cls-16" d="M542.41,704.93l.3,4.06Z" transform="translate(-32.53 -40.08)"/><path class="cls-19" d="M494.19,452.53l.22-.4-.22.4Z" transform="translate(-32.53 -40.08)"/><path class="cls-19" d="M490.38,457.3l-.94.94Z" transform="translate(-32.53 -40.08)"/><path class="cls-20" d="M316.76,144.41c-.41-.59-.81-1.18-1.21-1.78-3-1.93-5.81-4.17-9-5.73-6.65-3.27-11.34-7.39-11.22-15.73.06-3.79,1.54-6.3,4.31-7.52,2.94-1.3,6.47-1.47,9,1.68a17.06,17.06,0,0,0,2.45,2.1,3.41,3.41,0,0,0,.45-.47c1.77-3.54,3.31-7.62,8.18-7.35,5.05.27,7.54,4,9.32,8.26,1.85,4.84.1,9.1-2.12,13.28l-7.71,13.18a1.88,1.88,0,0,0-.58.13Z" transform="translate(-32.53 -40.08)"/><path class="cls-9" d="M475.24,106.28,488,117.08a16,16,0,0,1-3.64-.67c-1.11-.48-2-2.17-3-2.11C475.18,114.64,475,110.65,475.24,106.28Z" transform="translate(-32.53 -40.08)"/><path class="cls-12" d="M327,131.15c2.22-4.18,4-8.44,2.12-13.28C335,122.08,334.19,126.79,327,131.15Z" transform="translate(-32.53 -40.08)"/><path class="cls-9" d="M488.33,117.41l2.28,2.27Z" transform="translate(-32.53 -40.08)"/><path class="cls-15" d="M56.1,572.42q.09,20.8.17,41.62c-.4-.93-1.13-1.86-1.14-2.8q-.1-18.18,0-36.37A7.56,7.56,0,0,1,56.1,572.42Z" transform="translate(-32.53 -40.08)"/><path class="cls-18" d="M211.16,622.65l35,.07c-.32.31-.64.9-1,.9q-15.76.09-31.55,0A7.56,7.56,0,0,1,211.16,622.65Z" transform="translate(-32.53 -40.08)"/><path class="cls-18" d="M488.62,622.64l35,.05c-.29.32-.59.93-.89.93-10.54,0-21.08.07-31.62,0A7.27,7.27,0,0,1,488.62,622.64Z" transform="translate(-32.53 -40.08)"/><path class="cls-18" d="M325.06,622.85l34.05-.13a14.77,14.77,0,0,1-3.47.89q-13.75.12-27.5,0A13.9,13.9,0,0,1,325.06,622.85Z" transform="translate(-32.53 -40.08)"/><path class="cls-21" d="M439.27,669.39c-5.22,0-10.45-.08-15.67-.08-3.74,0-5.46-1.84-5.46-5.54q0-48.48,0-97c0-3.13,1-4.2,4.11-4.06,4.27.2,8.56.2,12.82,0,3.11-.15,4.16,1,4.1,4.07-.16,9-.05,18.06-.05,27.09q0,32.79,0,65.59c0,2.31.66,5.13-3.4,5.34l3.92,1.13-.41,3.46Z" transform="translate(-32.53 -40.08)"/><ellipse class="cls-13" cx="476.37" cy="652.51" rx="0.34" ry="4.65"/><path class="cls-13" d="M509.25,699.88v2.53l-.57,0c-.06-.9-.11-1.8-.17-2.71Z" transform="translate(-32.53 -40.08)"/><path class="cls-9" d="M127.32,694l-.28,1h-.65l0,0Z" transform="translate(-32.53 -40.08)"/><path class="cls-9" d="M126.39,695l-.23.38c.07-.13.13-.27.2-.41Z" transform="translate(-32.53 -40.08)"/><path class="cls-22" d="M141.61,669l-.75-3.07,4.89-.91.09-.76a13.56,13.56,0,0,1-2.71-.75c-.86-.42-2.2-1.07-2.26-1.71-.28-3.05-.23-6.14-.23-9.21,0-28.25,0-56.51.08-84.77,0-1.69,1.21-3.38,1.86-5.07,4.76,0,9.52.23,14.25-.08,3.81-.24,4.85,1.1,4.82,4.84-.16,22.18-.08,44.36-.08,66.54V669Z" transform="translate(-32.53 -40.08)"/></svg>